<?xml version="1.0" encoding="UTF-8"?>
<svg width="666px" height="870px" viewBox="0 0 666 870" version="1.1" xmlns="http://www.w3.org/2000/svg" xmlns:xlink="http://www.w3.org/1999/xlink">
    <title>SOURCE CMYK</title>
    <g id="Page-1" stroke="none" stroke-width="1" fill="none" fill-rule="evenodd">
        <g id="SOURCE-CMYK">
            <path d="M585.75,476.654 C584.54,473.21 580.16,472.249 577.61,474.87 L565.97,486.867 C545.41,508.049 524.14,519.891 502.2,525.781 C498.43,526.793 495.04,523.186 496.28,519.487 C504.4,495.304 505.67,469.149 499.61,443.875 C479.49,359.927 257.638,418.407 256.401,419.434 C215.424,453.481 149.359,460.706 90.773,500.836 C-2.651,564.832 -31.771,679.8 44.021,772.34 C83.048,819.99 143.291,853.37 208.096,864.07 C322.935,883.02 456.68,850.14 538.51,766.67 C611.26,692.46 627.35,594.71 591.31,492.426 L585.75,476.654" id="Fill-3" fill="#121023"></path>
            <path d="M567.3,532.346 C426.55,620.94 295.254,451.805 145.932,587.9 C140.61,592.75 129.81,583.32 135.967,577.108 C251.776,460.169 358.93,526.977 454.77,530.549 C456.66,530.619 458.31,529.688 459.23,528.039 C472.17,504.878 476.08,477.517 470.09,451.646 C456.92,394.813 312.536,411.952 276.574,442.291 C229.131,482.314 162.786,488.067 106.862,526.844 C-32.788,623.67 59.813,797.83 216.825,823.74 C402.89,854.44 610.57,741.3 574.75,535.649 C574.15,532.196 570.26,530.476 567.3,532.346" id="Fill-4" fill="#E8812C"></path>
            <path d="M466.67,442.809 C456.99,442.237 448.47,442.083 445.16,443.104 C436.87,445.653 339.95,455.218 331.661,454.899 C323.372,454.581 284.304,441.696 284.304,441.696 C284.304,441.696 282.844,440.189 280.79,439.133 C279.261,440.168 277.842,441.22 276.574,442.291 C274.171,444.317 271.719,446.25 269.225,448.109 L269.224,448.118 C269.224,448.118 288.435,478.654 338.99,491.562 C338.99,491.562 205.201,488.585 135.967,577.108 C251.776,460.169 358.93,526.977 454.77,530.549 C456.66,530.619 458.31,529.688 459.23,528.039 C472.17,504.878 476.08,477.517 470.09,451.646 C469.35,448.468 468.18,445.534 466.67,442.809" id="Fill-5" fill="#C65D2D"></path>
            <path d="M571.91,532 C544.01,912.79 -46.657,807.6 88.539,541.128 C-23.85,639.87 67.263,799.06 216.825,823.74 C402.89,854.44 610.57,741.3 574.75,535.649 C574.45,533.922 573.33,532.629 571.91,532" id="Fill-6" fill="#C65D2D"></path>
            <path d="M399.92,414.572 C361.23,412.354 316.1,420.929 290.057,433.812 C285.389,438.984 281.532,444.83 282.168,451.097 C288.792,516.282 446.82,524.353 459,463.313 C463.1,442.781 435.52,422.946 399.92,414.572" id="Fill-7" fill="#FAEDCE"></path>
            <path d="M445.16,443.104 C436.87,445.653 339.95,455.218 331.661,454.899 C323.372,454.581 284.304,441.696 284.304,441.696 C282.722,444.692 281.837,447.838 282.168,451.097 C282.733,456.654 284.42,461.784 287.001,466.503 C298.173,475.402 315.074,485.455 338.99,491.562 C338.99,491.562 330.806,491.381 317.449,492.446 C366.57,515.311 450.27,507.075 459,463.313 C460.45,456.089 457.96,448.952 452.59,442.368 C449.28,442.417 446.67,442.637 445.16,443.104" id="Fill-8" fill="#E8C891"></path>
            <path d="M567.3,532.346 C512.33,566.941 458.81,562.234 405.09,551.751 C401.71,569.417 399.92,587.65 399.92,606.31 C399.92,672.1 421.98,732.73 459.08,781.24 C541.39,732.43 594.28,647.8 574.75,535.649 C574.15,532.196 570.26,530.476 567.3,532.346" id="Fill-9" fill="#FAEDCE"></path>
            <path d="M571.91,532 C563.83,642.28 508.51,711.73 437.33,748.37 C443.84,759.84 451.11,770.82 459.08,781.24 C541.39,732.43 594.28,647.8 574.75,535.649 C574.45,533.922 573.33,532.629 571.91,532" id="Fill-10" fill="#E8C891"></path>
            <path d="M659.17,3.903 C658.65,1.547 656.54,-0.054 654.13,0.073 C584.94,3.709 516.29,22.735 476.06,83.3 C474.84,85.14 472.63,85.924 470.52,85.269 C418.17,68.991 360.58,68.992 308.222,85.281 C306.11,85.937 303.905,85.153 302.683,83.311 C262.485,22.732 193.838,3.709 124.656,0.073 C122.246,-0.054 120.139,1.546 119.614,3.903 C103.969,74.223 118.585,144.822 166.173,200.772 C167.405,202.221 167.692,204.116 166.948,205.867 C134.872,281.26 158.824,363.719 223.14,417.841 C315.304,495.396 463.48,495.396 555.64,417.841 C619.95,363.732 643.91,281.279 611.85,205.897 C611.11,204.146 611.39,202.253 612.62,200.805 C660.2,144.837 674.82,74.231 659.17,3.903" id="Fill-11" fill="#121023"></path>
            <path d="M634.23,36.667 C634.09,35.321 633.49,34.212 632.44,33.359 C631.39,32.506 630.18,32.148 628.83,32.291 C566.86,38.906 517.26,63.879 491.28,120.385 C490.21,122.724 487.52,123.831 485.11,122.929 C415.63,96.987 364.71,96.406 293.627,122.949 C291.217,123.849 288.534,122.744 287.46,120.406 C261.475,63.887 211.957,38.909 149.954,32.291 C148.608,32.148 147.398,32.506 146.346,33.359 C145.295,34.212 144.694,35.322 144.557,36.668 C138.176,99.108 160.145,149.874 202.584,195.24 C204.012,196.765 204.323,198.912 203.389,200.781 C167.916,271.732 178.696,333.716 242.214,387.166 C322.857,455.027 455.34,455.849 535.98,387.988 C599.49,334.542 610.85,271.786 575.42,200.812 C574.48,198.944 574.79,196.8 576.22,195.275 C618.65,149.89 640.61,99.115 634.23,36.667" id="Fill-12" fill="#E8812C"></path>
            <path d="M240.218,385.459 C240.879,386.028 241.539,386.597 242.214,387.166 C322.857,455.027 455.34,455.849 535.98,387.988 C536.9,387.21 537.81,386.432 538.71,385.651 C495.37,358.064 444.07,342.087 389.29,342.087 C334.53,342.087 283.5,357.977 240.218,385.459" id="Fill-13" fill="#FAEDCE"></path>
            <path d="M311.278,273.783 C297.758,276.149 276.179,272.928 260.661,255.208 C256.059,249.954 247.594,255.982 251.154,262.146 C260.504,276.696 281.476,303.739 316.536,287.013 C324.091,283.413 319.801,272.292 311.278,273.783" id="Fill-14" fill="#121023"></path>
            <path d="M518.12,255.208 C502.6,272.928 481.03,276.149 467.51,273.783 C460.52,272.561 455.85,283.964 462.25,287.013 C497.31,303.739 518.28,276.696 527.63,262.146 C531.18,256.621 522,250.786 518.12,255.208" id="Fill-15" fill="#121023"></path>
            <path d="M389.98,333.241 C370.65,333.241 354.4,335.471 354.4,345.909 C354.4,356.346 374.36,380.701 390.01,380.701 C405.67,380.701 424.38,356.346 424.38,345.909 C424.38,335.471 409.3,333.241 389.98,333.241" id="Fill-16" fill="#121023"></path>
            <path d="M491.28,120.385 C490.21,122.724 487.52,123.831 485.11,122.929 C415.63,96.987 364.71,96.406 293.627,122.949 C291.217,123.849 288.534,122.744 287.46,120.406 C266.607,75.052 230.603,50.008 185.153,38.465 C235.972,54.309 267.442,96.774 279.84,134.812 C280.996,139.125 283.789,142.225 290.453,139.215 C323.143,124.452 358.9,115.071 389.37,115.056 C419.25,115.071 454.21,124.09 486.38,138.36 C492.03,140.868 497.13,141.425 498.93,134.728 C511.33,96.758 542.73,54.4 593.4,38.523 C548.06,50.091 512.09,75.121 491.28,120.385" id="Fill-17" fill="#EEAE60"></path>
            <path d="M242.183,387.139 C241.518,386.579 240.885,386.013 240.23,385.451 C240.227,385.454 240.222,385.457 240.218,385.459 C240.87,386.02 241.521,386.581 242.183,387.139" id="Fill-18" fill="#C65D2D"></path>
            <path d="M247.509,349.545 C206.565,313.806 188.352,274.25 191.001,230.749 C172.327,288.604 187.446,340.081 240.23,385.451 C250.493,378.936 261.192,373.072 272.271,367.917 C263.583,362.466 255.295,356.342 247.509,349.545" id="Fill-19" fill="#C65D2D"></path>
            <path d="M417.89,399.181 C401.75,401.132 385.38,401.376 369.18,399.919 C334.9,396.839 301.34,386.151 272.271,367.917 C261.188,373.074 250.484,378.94 240.218,385.459 C240.87,386.02 241.521,386.581 242.183,387.139 C242.194,387.148 242.204,387.157 242.214,387.166 C254.326,397.357 267.608,406.037 281.708,413.199 C291.171,418.006 301.002,422.13 311.095,425.568 C311.1,425.569 311.102,425.57 311.106,425.571 C352.89,439.801 399.17,442.285 442.41,432.903 C446.56,432.003 450.69,430.994 454.78,429.873 C464.92,427.097 474.84,423.648 484.45,419.524 C503.05,411.542 520.47,401.034 535.98,387.988 C536.9,387.211 537.81,386.433 538.71,385.651 C528.5,379.153 517.85,373.298 506.82,368.145 C480.05,385.04 449.42,395.369 417.89,399.181" id="Fill-20" fill="#E8C891"></path>
            <path d="M530.71,350.367 C523.18,356.937 515.19,362.862 506.82,368.145 C517.85,373.298 528.5,379.153 538.71,385.653 C591.07,340.288 606.29,288.293 587.59,230.325 C590.29,274.324 571.85,314.449 530.71,350.367" id="Fill-21" fill="#C65D2D"></path>
            <path d="M174.168,76.477 C174.168,76.477 176.339,134.004 220.987,178.962 C237.892,160.324 255.506,146.58 269.156,137.371 C254.435,117.001 223.478,83.863 174.168,76.477" id="Fill-22" fill="#121023"></path>
            <path d="M509.65,137.371 C523.3,146.58 540.91,160.324 557.82,178.962 C602.46,134.004 604.64,76.477 604.64,76.477 C555.33,83.863 524.37,117.001 509.65,137.371" id="Fill-23" fill="#121023"></path>
            <path d="M145.932,587.9 C226.673,537.088 319.275,565.332 401.19,579.117 C402.06,569.861 403.37,560.732 405.09,551.751 C321.255,535.388 236.943,504.95 145.932,587.9" id="Fill-24" fill="#EEAE60"></path>
            <path d="M405.09,551.751 C403.37,560.732 402.06,569.861 401.19,579.117 C468.61,590.46 528.79,592.01 569.16,531.638 C568.52,531.739 567.89,531.97 567.3,532.346 C512.33,566.941 458.81,562.234 405.09,551.751" id="Fill-25" fill="#FFF9EA"></path>
        </g>
    </g>
</svg>