<?xml version="1.0" encoding="UTF-8"?>
<svg width="244px" height="244px" viewBox="0 0 244 244" version="1.1" xmlns="http://www.w3.org/2000/svg" xmlns:xlink="http://www.w3.org/1999/xlink">
    <title>Fox Logo</title>
    <g id="Page-1" stroke="none" stroke-width="1" fill="none" fill-rule="evenodd">
        <g id="Fox-Logo">
            <path d="M144.89,61.25 C143.683276,66.1710445 141.911507,70.9360296 139.61,75.45 C138.816667,77.01 137.96,78.5366667 137.04,80.03 L137.11,80.03 L138.23,79.68 C141.549838,78.638658 144.947206,77.862881 148.39,77.36 C151.602423,76.8949109 154.844084,76.6609767 158.09,76.66 C159,76.66 159.91,76.66 160.81,76.72 C160.76,75.11 160.65,73.51 160.48,71.93 C160.31,70.35 160.11,68.98 159.84,67.53 C159.106345,63.486962 157.970709,59.5273092 156.45,55.71 C155.92,54.39 155.35,53.1 154.74,51.82 L154.74,51.73 C153.760885,49.7006543 152.669185,47.7275813 151.47,45.82 C149.968471,43.4375662 148.30804,41.1590671 146.5,39 C146.66,40.73 146.76,42.47 146.79,44.22 C146.79,44.61 146.79,44.99 146.79,45.38 C146.79,46.38 146.79,47.47 146.72,48.5 C146.525898,52.7993816 145.912998,57.0695895 144.89,61.25 Z" id="Path" fill="#CCBD92" fill-rule="nonzero"></path>
            <path d="M220.43,165.63 C218.93,166.24 217.43,166.8 215.86,167.3 L215.29,167.48 C213.86,167.93 212.41,168.32 210.95,168.67 L210.52,168.78 C209.03,169.12 207.52,169.41 206.01,169.66 C204.7,169.86 203.37,170.04 202.01,170.17 C200.5,170.32 199.01,170.41 197.46,170.46 C196.77,170.46 196.09,170.46 195.39,170.46 C184.541627,170.484864 173.855094,167.829548 164.28,162.73 C153.392679,170.079544 140.555812,174.004436 127.42,174 C124.595028,174.000015 121.77283,173.823002 118.97,173.47 C116.006635,176.636703 113.37928,180.101863 111.13,183.81 C110.39,185.04 109.68,186.31 109.02,187.59 C101.351104,202.54583 100.06329,219.969191 105.45,235.89 C147.259241,241.956094 189.028325,224.60958 214.24,190.71 C215.06,189.61 215.86,188.5 216.64,187.37 C217.21,186.55 217.77,185.71 218.32,184.87 C219.16,183.59 219.976667,182.29 220.77,180.97 C221.81,179.223333 222.81,177.45 223.77,175.65 C224.436667,174.43 225.056667,173.2 225.63,171.96 C226.75,169.653333 227.79,167.303333 228.75,164.91 C229.33,163.48 229.87,162.04 230.39,160.59 C229.33,161.25 228.24,161.89 227.14,162.49 C224.965598,163.664872 222.725207,164.713282 220.43,165.63 Z" id="Path" fill="#E6E7E8" fill-rule="nonzero"></path>
            <path d="M194.73,87.67 C198.412387,90.1249267 201.842475,92.938671 204.97,96.07 C205.08,96.17 205.17,96.28 205.27,96.38 C206.25,97.36 207.19,98.36 208.09,99.38 C209.203333,100.653333 210.26,101.96 211.26,103.3 C211.38,100.56 211.61,97.8366667 211.95,95.13 C212.23,92.9433333 212.563333,90.7633333 212.95,88.59 C214.282641,81.7282539 216.330485,75.0250012 219.06,68.59 C219.73,66.99 220.45,65.42 221.2,63.86 C221.14,63.75 221.08,63.64 221.01,63.53 C209.973414,68.6788419 200.795502,77.1093893 194.73,87.67 L194.73,87.67 Z" id="Path" fill="#CCBD92" fill-rule="nonzero"></path>
            <path d="M228.58,78.7 C227.131732,75.1475029 225.506361,71.6698089 223.71,68.28 C221.313409,73.5760432 219.402243,79.0785963 218,84.72 C217.5,86.72 217.063333,88.7633333 216.69,90.85 C215.692892,96.4786028 215.190972,102.183761 215.19,107.9 C215.19,108.37 215.19,108.83 215.19,109.3 C221.237285,119.499606 224.419204,131.14246 224.4,143 C224.4,144.87 224.31,146.72 224.16,148.56 C223.954356,150.972699 223.620552,153.372754 223.16,155.75 C222.85,157.34 222.48,158.91 222.06,160.46 C223.06,159.99 224.06,159.46 224.97,158.98 C226.18,158.33 227.36,157.63 228.52,156.9 C229.853333,156.046667 231.16,155.153333 232.44,154.22 C239.278462,130.693018 238.44129,105.598899 230.05,82.58 C229.59,81.25 229.1,80 228.58,78.7 Z" id="Path" fill="#D5662A" fill-rule="nonzero"></path>
            <path d="M220.16,138.43 C219.452012,128.543777 216.364294,118.975282 211.16,110.54 C209.481049,107.786642 207.58503,105.171674 205.49,102.72 C204.59,101.65 203.65,100.62 202.67,99.61 C199.66778,96.5123073 196.34972,93.7372028 192.77,91.33 C192.34,91.03 191.9,90.75 191.46,90.46 C190.74,90.01 190.01,89.56 189.28,89.14 C189.64,88.4 190.02,87.66 190.41,86.94 C190.67,86.46 190.94,85.94 191.21,85.51 C197.636732,74.4004416 207.28583,65.5045796 218.88,60 C214.910415,53.8231987 210.363346,48.037237 205.3,42.72 C203.78,41.12 202.213333,39.5666667 200.6,38.06 C197.777724,35.4130747 194.823986,32.9099068 191.75,30.56 C190.58,29.66 189.38,28.78 188.17,27.93 C172.461648,16.8226641 154.204985,9.85775405 135.09,7.68 C133.29,7.48 131.47,7.31 129.64,7.19 C127.11,7.03 124.57,6.93992586 122,6.93992586 C102.244665,6.91750751 82.8204069,12.0130161 65.62,21.73 C64.3266667,22.4566667 63.0533333,23.21 61.8,23.99 C59.96,25.12 58.15,26.31 56.38,27.54 C42.0986834,37.4987541 30.2422928,50.5445434 21.69,65.71 C20.79,67.3 19.94,68.9 19.12,70.53 C11.1135085,86.503862 6.96249673,104.131962 6.99974812,122 C6.99974812,122.45 6.99974812,122.89 6.99974812,123.34 C6.99974812,125.34 7.07666667,127.34 7.23,129.34 C7.88210013,139.698335 9.9444538,149.919266 13.36,159.72 C26.9809359,198.689233 60.3740493,227.419206 100.94,235.07 C95.8442576,218.078666 97.7300348,199.757118 106.18,184.16 C106.846667,182.866667 107.593333,181.6 108.42,180.36 C110.041101,177.818858 111.831836,175.390007 113.78,173.09 L114.19,172.61 C112.58,172.28 110.99,171.9 109.42,171.46 C106.694008,170.701656 104.021448,169.762919 101.42,168.65 C99.53,167.85 97.69,166.96 95.88,165.98 L97.88,162.39 C98.31,162.63 98.75,162.86 99.19,163.09 C103.57357,165.334438 108.209821,167.046595 113,168.19 C121.587207,159.703312 127.51846,148.900578 130.07,137.1 C130.44,135.38 130.74,133.62 130.96,131.85 C131.293362,129.249972 131.460368,126.631312 131.46,124.01 C131.46,123.16 131.46,122.31 131.4,121.46 C131.03154,112.263471 128.616219,103.264951 124.33,95.12 C123.76,94.04 123.16,92.97 122.53,91.92 L122.26,91.48 C121.63,90.48 120.97,89.48 120.26,88.48 C117.856653,85.0335336 115.112852,81.8374579 112.07,78.94 L110.85,77.81 L114.08,75.21 C114.75,75.83 115.42,76.47 116.08,77.12 C117.08,78.12 118.03,79.12 118.95,80.19 C120.646889,82.0974193 122.232833,84.1007176 123.7,86.19 C125.796435,84.9153443 127.963222,83.7601696 130.19,82.73 C130.73,82.01 131.26,81.28 131.77,80.54 C132.77,79.13 133.65,77.69 134.5,76.2 C139.566534,67.3764879 142.379541,57.4399435 142.69,47.27 C142.69,46.6033333 142.69,45.9533333 142.69,45.32 C142.69,44.56 142.69,43.81 142.69,43.06 C142.575405,39.9279994 142.224407,36.8091279 141.64,33.73 C141.205067,31.3639051 140.627344,29.0262991 139.91,26.73 C141.826572,28.2636699 143.659222,29.8993683 145.4,31.63 L145.5,31.73 C150.451156,36.6697998 154.592051,42.3597345 157.77,48.59 C157.89,48.82 158,49.05 158.11,49.28 C158.73,50.53 159.31,51.8 159.84,53.08 C160.1,53.7 160.35,54.32 160.58,54.94 C161.830081,58.212701 162.816556,61.5800918 163.53,65.01 C163.83,66.48 164.09,68.01 164.29,69.48 C164.634681,71.9497303 164.838345,74.4370957 164.9,76.93 C164.9,77.49 164.9,78.05 164.9,78.62 C164.9,79.42 164.9,80.22 164.85,81.02 C163.51,80.88 162.16,80.77 160.79,80.71 C159.89,80.71 158.98,80.65 158.07,80.65 C150.639561,80.6431383 143.268608,81.9743811 136.31,84.58 C135.13,85.02 133.96,85.5 132.82,86.01 C132.34,86.22 131.87,86.44 131.41,86.66 C129.533554,87.5662527 127.704514,88.5675515 125.93,89.66 C126.44,90.49 126.93,91.34 127.39,92.19 C128.163333,93.59 128.88,95.0166667 129.54,96.47 C131.050322,99.7746391 132.281289,103.199938 133.22,106.71 C134.448038,111.285031 135.18223,115.978498 135.41,120.71 C135.46,121.79 135.49,122.88 135.49,123.97 C135.49,125.61 135.43,127.24 135.31,128.86 C135.24,129.8 135.15,130.74 135.04,131.67 C134.93,132.6 134.83,133.42 134.69,134.29 C132.835546,146.274634 127.69523,157.510638 119.84,166.75 C119.16,167.55 118.47,168.33 117.75,169.1 C119.39,169.36 121.056667,169.55 122.75,169.67 C124.29,169.79 125.85,169.85 127.42,169.85 C139.051952,169.86197 150.451522,166.593562 160.31,160.42 C161.603333,159.62 162.853333,158.773333 164.06,157.88 C165.36,158.65 166.69,159.36 168.06,160.03 C176.574535,164.220712 185.940048,166.393566 195.43,166.38 L195.51,166.38 C197.01,166.38 198.51,166.32 199.97,166.22 C200.55,166.22 201.14,166.13 201.71,166.07 C203.2,165.92 204.71,165.71 206.13,165.46 C206.51,165.4 206.88,165.32 207.26,165.25 C208.65,164.98 210.02,164.67 211.37,164.31 C213.339864,163.791555 215.28233,163.174105 217.19,162.46 C219.274467,156.184212 220.331415,149.612896 220.320091,143 C220.320091,141.43 220.27,139.92 220.16,138.43 Z" id="Path" fill="#D5662A" fill-rule="nonzero"></path>
            <path d="M164.87,81.09 C163.53,80.95 162.18,80.84 160.81,80.78 C159.91,80.78 159,80.7199736 158.09,80.7199736 C150.659561,80.7131383 143.288608,82.0443811 136.33,84.65 C135.15,85.09 133.98,85.57 132.84,86.08 C132.36,86.29 131.89,86.51 131.43,86.73 C129.553554,87.6362527 127.724514,88.6375515 125.95,89.73 C126.46,90.56 126.95,91.41 127.41,92.26 C128.183333,93.66 128.9,95.0866667 129.56,96.54 C132.96473,104.007156 134.942092,112.045491 135.39,120.24 L135.39,120.24 C136.49,95.61 164.87,81.09 164.87,81.09 Z" id="Path" fill="#000000" fill-rule="nonzero" style="mix-blend-mode: screen;"></path>
            <path d="M228.58,78.7 C227.131732,75.1475029 225.506361,71.6698089 223.71,68.28 C221.313409,73.5760432 219.402243,79.0785963 218,84.72 C217.5,86.72 217.063333,88.7633333 216.69,90.85 C215.692892,96.4786028 215.190972,102.183761 215.19,107.9 C215.19,108.37 215.19,108.83 215.19,109.3 C221.237285,119.499606 224.419204,131.14246 224.4,143 C224.4,143.67 224.4,144.33 224.4,145 C228.96788,142.784624 233.011052,139.620995 236.26,135.72 C238.41405,117.772785 236.307071,99.5705407 230.11,82.59 C229.59,81.25 229.1,80 228.58,78.7 Z" id="Path"></path>
            <path d="M204.61,149.91 C209.933145,149.591789 215.184836,148.524619 220.21,146.74 C220.28,145.49 220.32,144.23 220.32,142.96 C220.32,141.43 220.27,139.96 220.16,138.43 C219.452012,128.543777 216.364294,118.975282 211.16,110.54 C209.481049,107.786642 207.58503,105.171674 205.49,102.72 C204.59,101.65 203.65,100.62 202.67,99.61 C199.66778,96.5123073 196.34972,93.7372028 192.77,91.33 C192.34,91.03 191.9,90.75 191.46,90.46 C190.74,90.01 190.01,89.56 189.28,89.14 C189.31,89.14 212.26,121.77 204.61,149.91 Z" id="Path" fill="#000000" fill-rule="nonzero" style="mix-blend-mode: screen;"></path>
            <path d="M163.28,143.89 C146.46,166.47 117.77,169.14 117.77,169.14 C119.41,169.4 121.076667,169.59 122.77,169.71 C124.31,169.83 125.87,169.890033 127.44,169.890033 C139.071952,169.90197 150.471522,166.633562 160.33,160.46 C161.62,159.66 162.87,158.81 164.08,157.93 C165.38,158.69 166.713333,159.403333 168.08,160.07 C176.594535,164.260712 185.960048,166.433566 195.45,166.42 L195.53,166.42 C199.852732,161.731191 202.978135,156.067041 204.64,149.91 C183.91,151.38 163.28,143.89 163.28,143.89 Z" id="Path" fill="#1C1C18" fill-rule="nonzero" style="mix-blend-mode: overlay;"></path>
            <path d="M224.36,145 C224.36,146.2 224.26,147.39 224.16,148.57 C223.954356,150.982699 223.620552,153.382754 223.16,155.76 C222.85,157.35 222.48,158.92 222.06,160.47 C223.06,160 224.06,159.47 224.97,158.99 C226.18,158.34 227.36,157.64 228.52,156.91 C229.853333,156.056667 231.16,155.163333 232.44,154.23 C234.200746,148.174027 235.458353,141.982986 236.2,135.72 C232.956842,139.618749 228.92068,142.782227 224.36,145 Z" id="Path" fill="#1C1C18" fill-rule="nonzero" style="mix-blend-mode: overlay;"></path>
            <path d="M195.5,166.42 C197,166.42 198.5,166.36 199.96,166.26 C200.54,166.26 201.13,166.17 201.7,166.11 C203.19,165.96 204.7,165.75 206.12,165.5 C206.5,165.44 206.87,165.36 207.25,165.29 C208.64,165.02 210.01,164.71 211.36,164.35 C213.329864,163.831555 215.27233,163.214105 217.18,162.5 C218.59662,158.208635 219.542183,153.775891 220,149.28 C220.08,148.44 220.15,147.59 220.2,146.74 C215.174836,148.524619 209.923145,149.591789 204.6,149.91 C202.941045,156.066084 199.81912,161.730149 195.5,166.42 L195.5,166.42 Z" id="Path" fill="#000000" fill-rule="nonzero" style="mix-blend-mode: screen;"></path>
            <path d="M195.5,166.42 C197,166.42 198.5,166.36 199.96,166.26 C200.54,166.26 201.13,166.17 201.7,166.11 C203.19,165.96 204.7,165.75 206.12,165.5 C206.5,165.44 206.87,165.36 207.25,165.29 C208.64,165.02 210.01,164.71 211.36,164.35 C213.329864,163.831555 215.27233,163.214105 217.18,162.5 C218.59662,158.208635 219.542183,153.775891 220,149.28 C220.08,148.44 220.15,147.59 220.2,146.74 C215.174836,148.524619 209.923145,149.591789 204.6,149.91 C202.941045,156.066084 199.81912,161.730149 195.5,166.42 L195.5,166.42 Z" id="Path" fill="#1C1C18" fill-rule="nonzero" style="mix-blend-mode: overlay;"></path>
            <path d="M97.89,162.42 C98.32,162.66 98.76,162.89 99.2,163.12 C103.581762,165.353348 108.214567,167.055401 113,168.19 C121.587207,159.703312 127.51846,148.900578 130.07,137.1 C130.44,135.38 130.74,133.62 130.96,131.85 C131.293362,129.249972 131.460368,126.631312 131.460001,124.01 C131.460001,123.16 131.460001,122.31 131.4,121.46 C131.03154,112.263471 128.616219,103.264951 124.33,95.12 C123.76,94.04 123.16,92.97 122.53,91.92 L122.26,91.48 C121.63,90.48 120.97,89.48 120.26,88.48 C117.856653,85.0335336 115.112852,81.8374579 112.07,78.94 L110.85,77.81 C139.35,136.15 97.89,162.42 97.89,162.42 Z" id="Path" fill="#1C1C18" fill-rule="nonzero" style="mix-blend-mode: overlay;"></path>
            <path d="M126,27.68 C139.84,44.61 123.76,86.23 123.76,86.23 C125.856435,84.9553443 128.023222,83.8001696 130.25,82.77 C130.79,82.05 131.32,81.32 131.83,80.58 C132.83,79.17 133.71,77.73 134.56,76.24 C139.554396,67.543181 142.358334,57.7620016 142.73,47.74 C138.56,37.35 126,27.68 126,27.68 Z" id="Path" fill="#1C1C18" fill-rule="nonzero" style="mix-blend-mode: overlay;"></path>
            <path d="M186.7,89.14 C187.11,88.31 187.53,87.49 187.97,86.67 C188.26,86.14 188.56,85.6 188.87,85.07 C196.065415,72.6450827 206.85592,62.6913212 219.82,56.52 C218.71,54.79 217.56,53.08 216.36,51.41 C191.67,66.14 186.7,89.14 186.7,89.14 Z" id="Path" fill="#1C1C18" fill-rule="nonzero" style="mix-blend-mode: overlay;"></path>
            <path d="M214.24,190.67 C190.65,188.18 192.33,170.42 192.33,170.42 L192.33,170.42 C182.543052,169.989407 172.976269,167.375625 164.33,162.77 C164.33,162.77 127.24,198 167.62,227.6 C186.112741,219.563057 202.183811,206.83237 214.24,190.67 Z" id="Path" fill="#EFEFEF" fill-rule="nonzero"></path>
            <path d="M227.14,162.45 C224.966517,163.638488 222.726109,164.700261 220.43,165.63 C218.93,166.24 217.43,166.8 215.86,167.3 L215.29,167.48 C213.86,167.93 212.41,168.32 210.95,168.67 L210.52,168.78 C209.03,169.12 207.52,169.41 206.01,169.66 C204.7,169.86 203.37,170.04 202.01,170.17 C200.65,170.3 199.25,170.39 197.86,170.44 L197.46,170.44 C196.77,170.44 196.09,170.44 195.39,170.44 C194.39,170.44 193.34,170.44 192.32,170.36 L192.32,170.36 C192.32,170.36 190.64,188.12 214.23,190.61 C215.05,189.51 215.85,188.4 216.63,187.27 C217.04,186.68 217.44,186.08 217.83,185.48 L218.31,184.77 C219.15,183.49 219.966667,182.19 220.76,180.87 C221.8,179.123333 222.8,177.35 223.76,175.55 C224.426667,174.33 225.046667,173.1 225.62,171.86 C226.74,169.553333 227.78,167.203333 228.74,164.81 C229.32,163.38 229.86,161.94 230.38,160.49 C229.33,161.21 228.24,161.85 227.14,162.45 Z" id="Path" fill="#F4F4F4" fill-rule="nonzero"></path>
            <path d="M236.56,80 C236.08,78.68 235.56,77.36 235.04,76.08 C234.84,75.5733333 234.63,75.0633333 234.41,74.55 C232.636602,70.3725108 230.633544,66.2962875 228.41,62.34 L227.36,60.51 C226.89,59.71 226.36,58.89 225.9,58.09 C225.65,57.68 225.4,57.27 225.14,56.86 C221.925731,51.7870524 218.342734,46.95736 214.42,42.41 C212.82,40.56 211.14,38.73 209.42,36.97 L208.24,35.77 C203.92227,31.4589296 199.293099,27.4714921 194.39,23.84 C193.15,22.92 191.87,22.01 190.59,21.14 C173.185518,9.26965505 152.996481,2.12303226 132,0.4 C130.05,0.25 128.07,0.13 126.12,0.07 C124.71,0.07 123.33,-0.000203900327 122.01,-0.000203900327 C105.69612,-0.0299133957 89.5438865,3.23182427 74.52,9.59 C70.9,11.12 67.32,12.84 63.88,14.71 C62.54,15.43 61.18,16.2 59.88,17 C42.5905504,27.267331 28.0914452,41.6290691 17.66,58.82 C16.66,60.48 15.66,62.2 14.73,63.92 C12.88,67.34 11.16,70.92 9.64,74.51 C3.26467334,89.5303208 -0.0140976036,105.682689 -4.52684825e-05,122 C-4.52684825e-05,122.44 -4.52684825e-05,122.89 -4.52684825e-05,123.33 L-4.52684825e-05,124 C-4.52684825e-05,125.92 0.08,127.91 0.25,129.89 C3.88469166,186.458907 46.0220175,233.063146 101.94,242.36 C103.55,242.63 105.17,242.86 106.75,243.06 C111.809325,243.684926 116.902226,244.000084 122,244.000084 C154.364237,244.037946 185.409954,231.179902 208.27,208.27 C212.442282,204.096541 216.308928,199.628342 219.84,194.9 C220.67,193.8 221.5,192.65 222.3,191.49 L222.91,190.61 C223.83,189.25 224.72,187.88 225.56,186.53 C227.23,183.86 228.82,181.08 230.28,178.26 C230.94,177 231.58,175.72 232.18,174.45 C232.89,172.96 233.58,171.45 234.23,169.91 L234.3,169.75 L234.41,169.49 C234.99,168.13 235.55,166.72 236.08,165.33 C237.08,162.77 237.96,160.13 238.76,157.49 C239.48,155.12 240.13,152.71 240.7,150.31 C246.218936,126.972203 244.77966,102.528839 236.56,80 Z M122,234.15 C117.198649,234.148722 112.40226,233.841432 107.64,233.23 C105.929702,227.615939 105.063567,221.778796 105.069799,215.91 C105.045388,206.517216 107.281688,197.256463 111.59,188.91 C112.21,187.69 112.89,186.48 113.59,185.29 C115.479959,182.165148 117.655964,179.22252 120.09,176.5 C122.518591,176.751254 124.958447,176.878086 127.4,176.88 C140.523572,176.908996 153.381987,173.186093 164.46,166.15 C173.096963,170.473941 182.550096,172.924122 192.2,173.34 C193.39,173.39 194.44,173.42 195.4,173.42 C196.06,173.42 196.74,173.42 197.56,173.42 L198,173.42 C199.55,173.37 201,173.27 202.33,173.14 C203.66,173.01 205.06,172.83 206.48,172.6 C208.06,172.35 209.64,172.04 211.18,171.68 L211.57,171.59 L211.63,171.59 C213.15,171.22 214.63,170.8 216.16,170.34 L216.76,170.15 C218.36,169.63 219.97,169.05 221.53,168.41 C222.62,167.97 223.7,167.49 224.78,166.99 C224.22,168.27 223.64,169.53 223.04,170.77 C222.45,171.97 221.84,173.18 221.22,174.35 C220.31,176.08 219.32,177.83 218.3,179.54 C217.53,180.83 216.72,182.11 215.91,183.35 L215.67,183.71 L215.44,184.04 L215.34,184.2 C214.99,184.73 214.64,185.26 214.27,185.78 C213.52,186.87 212.73,187.97 211.93,189.04 C200.171839,204.791566 184.505305,217.200703 166.48,225.04 C152.437923,231.104277 137.295499,234.205614 122,234.15 L122,234.15 Z M122,9.84970757 C124.47,9.84970757 127,9.94 129.45,10.1 C131.23,10.22 133.02,10.38 134.76,10.58 C153.387144,12.7185421 171.178438,19.5028914 186.5,30.31 C187.69,31.15 188.87,32.01 190,32.88 C192.998051,35.1656641 195.875266,37.6056226 198.62,40.19 C200.2,41.66 201.74,43.19 203.2,44.73 C206.899544,48.6156822 210.318161,52.759461 213.43,57.13 C213.85,57.72 214.26,58.31 214.67,58.91 C208.991473,61.9592022 203.792468,65.827289 199.24,70.39 C195.161081,74.4712398 191.631365,79.0665938 188.74,84.06 L187.9,85.56 C187.5,86.3 187.1,87.07 186.71,87.86 L185.52,90.28 L187.85,91.63 C188.57,92.05 189.27,92.48 189.93,92.9 L191.19,93.72 C194.600431,96.0248592 197.763859,98.6755707 200.63,101.63 C201.55,102.63 202.46,103.63 203.32,104.63 C207.541397,109.592113 210.919642,115.213513 213.32,121.27 C215.524555,126.834666 216.873196,132.701254 217.32,138.67 C217.42,140.13 217.47,141.58 217.47,143 C217.47,144.16 217.47,145.34 217.36,146.6 C217.31,147.5 217.24,148.29 217.17,149.03 C216.779441,152.851216 216.019216,156.625549 214.9,160.3 C213.5,160.79 212.08,161.22 210.66,161.6 C209.24,161.98 208.06,162.24 206.74,162.49 L205.66,162.69 C204.26,162.94 202.84,163.13 201.45,163.27 C200.94,163.27 200.39,163.37 199.79,163.41 C198.37,163.52 196.94,163.57 195.54,163.57 L195.45,163.57 C186.402283,163.589801 177.472702,161.515702 169.36,157.51 C168.08,156.88 166.8,156.19 165.56,155.51 L163.93,154.51 L162.4,155.63 C161.24,156.48 160.04,157.29 158.82,158.05 C149.418655,163.934083 138.550884,167.053022 127.46,167.05 C126.17,167.05 124.87,167 123.57,166.92 C130.932865,157.610003 135.756432,146.550252 137.57,134.82 C137.71,133.92 137.83,133 137.94,132.09 C138.05,131.18 138.15,130.09 138.21,129.16 C138.34,127.47 138.4,125.75 138.4,124.06 C138.4,122.94 138.4,121.8 138.32,120.66 L138.32,120.28 L138.32,120 C138.026653,115.266367 137.249264,110.575224 136,106 C135.015092,102.332902 133.727333,98.7539354 132.15,95.3 C131.46,93.79 130.71,92.3 129.91,90.83 L129.91,90.75 C130.82,90.26 131.74,89.75 132.67,89.35 L134.01,88.73 C135.1,88.24 136.22,87.79 137.35,87.37 C143.980997,84.8808685 151.007217,83.6104575 158.09,83.62 C158.9,83.62 159.75,83.62 160.68,83.68 C161.98,83.74 163.28,83.84 164.56,83.98 L167.7,84.32 L167.76,81.16 L167.81,78.75 L167.81,78.7 C167.81,78.12 167.81,77.53 167.81,76.93 C167.738425,74.3306341 167.528125,71.736943 167.18,69.16 C166.96,67.6 166.69,66.03 166.38,64.5 C165.625629,60.9247155 164.592471,57.4139864 163.29,54 C163.03,53.34 162.77,52.69 162.51,52.06 C161.97,50.75 161.36,49.41 160.7,48.06 L160.34,47.34 C157.029163,40.8344235 152.708993,34.8941897 147.54,29.74 L147.45,29.66 C145.632481,27.8457243 143.716234,26.133121 141.71,24.53 L134.32,18.63 L137.15,27.63 C138.71381,32.6741249 139.604842,37.9026321 139.8,43.18 C139.8,44 139.8,44.68 139.8,45.33 C139.8,45.98 139.8,46.48 139.8,47.19 C139.8,47.25 139.8,47.31 139.8,47.37 C139.8,47.43 139.8,47.53 139.8,47.6 C139.434147,57.1634335 136.757883,66.4960459 132,74.8 C131.21,76.19 130.33,77.58 129.4,78.94 C129.04,79.46 128.68,79.94 128.31,80.46 C127.03,81.07 125.76,81.73 124.52,82.46 C123.44,81.04 122.31,79.65 121.13,78.31 C120.13,77.19 119.13,76.11 118.13,75.12 C117.5,74.48 116.81,73.83 116.05,73.12 L114.21,71.43 L112.27,73 L109.04,75.6 L106.41,77.73 L108.92,80 C109.35,80.38 109.73,80.74 110.09,81.08 C112.987617,83.8441885 115.60377,86.8891087 117.9,90.17 C118.55,91.11 119.19,92.08 119.78,93.03 L119.83,93.12 L120.04,93.46 C120.62,94.46 121.2,95.46 121.75,96.51 C125.847215,104.270243 128.150485,112.851119 128.49,121.62 C128.49,122.52 128.55,123.31 128.55,124.05 C128.548816,126.547351 128.391845,129.042196 128.08,131.52 C127.87,133.17 127.58,134.86 127.22,136.52 C124.913419,147.232019 119.675179,157.092236 112.09,165 C108.089183,163.922727 104.211562,162.431334 100.52,160.55 L99.26,159.89 L96.75,158.53 L95.36,161 L93.36,164.59 L91.93,167.15 L94.5,168.54 C96.37,169.54 98.32,170.49 100.29,171.33 C102.995718,172.488989 105.775115,173.467791 108.61,174.26 L109.04,174.38 C107.946667,175.826667 106.916667,177.306667 105.95,178.82 C105.15,180.09 104.36,181.42 103.61,182.82 C95.577441,197.649541 93.2036446,214.891548 96.93,231.34 C59.3157369,222.643963 28.787722,195.268031 16.06,158.82 C12.7215619,149.269112 10.7029156,139.307093 10.06,129.21 C9.94,127.27 9.86,125.29 9.839947,123.33 C9.839947,122.89 9.839947,122.46 9.839947,122.02 C9.82302268,104.606566 13.8848325,87.4312063 21.7,71.87 C22.49,70.29 23.33,68.71 24.2,67.17 C32.5406973,52.3857191 44.0907707,39.6601353 58,29.93 C59.71,28.74 61.49,27.57 63.29,26.47 C64.51,25.71 65.76,24.97 67.01,24.27 C71.1796566,21.9087217 75.4950003,19.8145107 79.93,18 C93.29332,12.5848773 107.581235,9.81695461 122,9.84970757 L122,9.84970757 Z M142.85,75.44 C144.932588,71.1212627 146.558086,66.5966831 147.7,61.94 C148.765454,57.5718029 149.408412,53.1112768 149.62,48.62 C149.614789,48.5467592 149.614789,48.4732408 149.62,48.4 C150.51,49.9 151.34,51.4 152.08,52.98 L152.13,53.07 C152.71,54.27 153.25,55.52 153.75,56.77 C155.203072,60.3962912 156.291766,64.1581502 157,68 C157.25,69.37 157.45,70.78 157.61,72.2 C157.66,72.71 157.71,73.2 157.75,73.73 C154.480384,73.7474439 151.215903,73.9913611 147.98,74.46 C146.26,74.7333333 144.55,75.06 142.85,75.44 L142.85,75.44 Z M210.16,88.08 C209.73,90.31 209.36,92.57 209.08,94.8 C209.03,95.21 208.98,95.62 208.94,96.03 C208.41,95.46 207.87,94.9 207.33,94.35 L207.22,94.23 L207.02,94.03 C204.410133,91.4189165 201.59805,89.0181133 198.61,86.85 C202.959268,80.1082349 208.688591,74.365279 215.42,70 C213.120643,75.8542182 211.360017,81.9059516 210.16,88.08 L210.16,88.08 Z M226.27,154.87 C226.61,152.87 226.88,150.81 227.04,148.76 C227.14,147.56 227.21,146.31 227.25,145.04 C227.25,144.25 227.25,143.59 227.25,142.96 C227.262526,130.869968 224.10413,118.988054 218.089998,108.5 C218.089998,108.3 218.089998,108.1 218.089998,107.9 C218.088758,102.354435 218.577323,96.8195965 219.55,91.36 C219.9,89.36 220.33,87.36 220.81,85.36 C221.684828,81.9497819 222.749826,78.5911969 224,75.3 C224.666667,76.7866667 225.316667,78.2833333 225.95,79.79 C226.46,81.04 226.95,82.29 227.4,83.54 C235.459234,105.664502 236.368667,129.76097 230,152.43 C229,153.11 228.05,153.78 227,154.43 L226.27,154.87 Z" id="Shape" fill="#1E1E1E" fill-rule="nonzero"></path>
            <path d="M183.94,141.29 C182.29,140.96 180.62,140.69 178.94,140.47 C172.38137,139.641684 165.738318,139.749428 159.21,140.79 C157.5,141.07 155.78,141.41 154.1,141.79 L149.84,142.79 L153,145.9 C154.23,147.11 155.51,148.29 156.83,149.41 L157.71,150.16 L158.86,149.94 C160.64,149.6 162.43,149.33 164.19,149.16 C166.183279,148.952793 168.18598,148.849321 170.19,148.85 C171.68,148.85 173.19,148.91 174.69,149.02 C176.36,149.15 178.07,149.35 179.77,149.62 L181,149.82 L181.88,148.94 C183.06,147.75 184.21,146.51 185.29,145.26 L188.01,142.11 L183.94,141.29 Z" id="Path" fill="#1E1E1E" fill-rule="nonzero"></path>
        </g>
    </g>
</svg>