<?xml version="1.0" encoding="UTF-8"?>
<svg width="60px" height="48px" viewBox="0 0 60 48" version="1.1" xmlns="http://www.w3.org/2000/svg" xmlns:xlink="http://www.w3.org/1999/xlink">
    <title>coracaozinho-para-o-luiz-otavio</title>
    <g id="Page-1" stroke="none" stroke-width="1" fill="none" fill-rule="evenodd">
        <g id="coracaozinho-para-o-luiz-otavio" fill-rule="nonzero">
            <rect id="rect2987" fill="#FFFFFF" x="12" y="12.00002" width="6" height="6"></rect>
            <rect id="rect3950" fill="#000000" x="18" y="0" width="6" height="6"></rect>
            <rect id="rect3950-2" fill="#000000" x="12" y="0" width="6" height="6"></rect>
            <rect id="rect3950-6" fill="#000000" x="24" y="6.00002" width="6" height="6"></rect>
            <rect id="rect3950-0" fill="#000000" x="30" y="6.00002" width="6" height="6"></rect>
            <rect id="rect3950-23" fill="#000000" x="36" y="0" width="6" height="6"></rect>
            <rect id="rect3950-7" fill="#000000" x="42" y="0" width="6" height="6"></rect>
            <rect id="rect3950-07" fill="#000000" x="48" y="0" width="6" height="6"></rect>
            <rect id="rect3950-62" fill="#000000" x="54" y="6.00002" width="6" height="6"></rect>
            <rect id="rect3950-5" fill="#000000" x="54" y="12.00002" width="6" height="6"></rect>
            <rect id="rect3950-9" fill="#000000" x="6" y="0" width="6" height="6"></rect>
            <rect id="rect3950-57" fill="#000000" x="1.77635684e-15" y="6.00002" width="6" height="6"></rect>
            <rect id="rect3950-1" fill="#000000" x="1.77635684e-15" y="12.00002" width="6" height="6"></rect>
            <rect id="rect3950-28" fill="#000000" x="1.77635684e-15" y="18.00002" width="6" height="6"></rect>
            <rect id="rect3950-72" fill="#000000" x="54" y="18.00002" width="6" height="6"></rect>
            <rect id="rect3950-66" fill="#000000" x="6" y="24.00002" width="6" height="6"></rect>
            <rect id="rect3950-00" fill="#000000" x="12" y="30.00002" width="6" height="6"></rect>
            <rect id="rect3950-3" fill="#000000" x="18" y="36.00002" width="6" height="6"></rect>
            <rect id="rect3950-99" fill="#000000" x="24" y="42.00002" width="6" height="6"></rect>
            <rect id="rect3950-10" fill="#000000" x="30" y="42.00002" width="6" height="6"></rect>
            <rect id="rect3950-38" fill="#000000" x="36" y="36.00002" width="6" height="6"></rect>
            <rect id="rect3950-8" fill="#000000" x="42" y="30.00002" width="6" height="6"></rect>
            <rect id="rect3950-74" fill="#000000" x="48" y="24.00002" width="6" height="6"></rect>
            <rect id="rect3950-89" fill="#9D0000" x="6" y="6.00002" width="6" height="6"></rect>
            <rect id="rect3950-89-7" fill="#FF0000" x="12" y="6.00002" width="6" height="6"></rect>
            <rect id="rect3950-89-8" fill="#FF0000" x="18" y="6.00002" width="6" height="6"></rect>
            <rect id="rect3950-89-1" fill="#9D0000" x="6" y="12.00002" width="6" height="6"></rect>
            <rect id="rect3950-89-76" fill="#FF0000" x="12" y="12.00002" width="6" height="6"></rect>
            <rect id="rect3950-89-4" fill="#FF0000" x="18" y="12.00002" width="6" height="6"></rect>
            <rect id="rect3950-89-2" fill="#9D0000" x="6" y="18.00002" width="6" height="6"></rect>
            <rect id="rect3950-89-79" fill="#FF0000" x="12" y="18.00002" width="6" height="6"></rect>
            <rect id="rect3950-89-18" fill="#FF0000" x="18" y="18.00002" width="6" height="6"></rect>
            <rect id="rect3950-89-3" fill="#9D0000" x="12" y="24.00002" width="6" height="6"></rect>
            <rect id="rect3950-89-0" fill="#FF0000" x="18" y="24.00002" width="6" height="6"></rect>
            <rect id="rect3950-89-5" fill="#9D0000" x="18" y="30.00002" width="6" height="6"></rect>
            <rect id="rect3950-89-58" fill="#FF0000" x="24" y="30.00002" width="6" height="6"></rect>
            <rect id="rect3950-89-36" fill="#9D0000" x="24" y="36.00002" width="6" height="6"></rect>
            <rect id="rect3950-89-09" fill="#FF0000" x="30" y="36.00002" width="6" height="6"></rect>
            <rect id="rect3950-89-50" fill="#FF0000" x="30" y="30.00002" width="6" height="6"></rect>
            <rect id="rect3950-89-27" fill="#FF0000" x="24" y="24.00002" width="6" height="6"></rect>
            <rect id="rect3950-89-505" fill="#FF0000" x="30" y="24.00002" width="6" height="6"></rect>
            <rect id="rect3950-89-24" fill="#FF0000" x="30" y="18.00002" width="6" height="6"></rect>
            <rect id="rect3950-89-6" fill="#FF0000" x="24" y="18.00002" width="6" height="6"></rect>
            <rect id="rect3950-89-12" fill="#FF0000" x="24" y="12.00002" width="6" height="6"></rect>
            <rect id="rect3950-89-65" fill="#FF0000" x="30" y="12.00002" width="6" height="6"></rect>
            <rect id="rect3950-89-9" fill="#FF0000" x="36" y="18.00002" width="6" height="6"></rect>
            <rect id="rect3950-89-21" fill="#FF0000" x="42" y="24.00002" width="6" height="6"></rect>
            <rect id="rect3950-89-39" fill="#FF0000" x="36" y="24.00002" width="6" height="6"></rect>
            <rect id="rect3950-89-26" fill="#FF0000" x="36" y="30.00002" width="6" height="6"></rect>
            <rect id="rect3950-89-95" fill="#FF0000" x="42" y="18.00002" width="6" height="6"></rect>
            <rect id="rect3950-89-86" fill="#FF5757" x="48" y="18.00002" width="6" height="6"></rect>
            <rect id="rect3950-89-19" fill="#FF0000" x="36" y="12.00002" width="6" height="6"></rect>
            <rect id="rect3950-89-99" fill="#FF0000" x="42" y="12.00002" width="6" height="6"></rect>
            <rect id="rect3950-89-90" fill="#FF5757" x="48" y="12.00002" width="6" height="6"></rect>
            <rect id="rect3950-89-41" fill="#FF5757" x="48" y="6.00002" width="6" height="6"></rect>
            <rect id="rect3950-89-33" fill="#FF5757" x="42" y="6.00002" width="6" height="6"></rect>
            <rect id="rect3950-89-63" fill="#FF5757" x="36" y="6.00002" width="6" height="6"></rect>
        </g>
    </g>
</svg>